<?xml version="1.0" encoding="UTF-8"?>
<svg version="1.1" xmlns="http://www.w3.org/2000/svg" width="16" height="16">
<path d="M0 0 C5.28 0 10.56 0 16 0 C16 5.28 16 10.56 16 16 C10.72 16 5.44 16 0 16 C0 10.72 0 5.44 0 0 Z " fill="#EFEFEF" transform="translate(0,0)"/>
<path d="M0 0 C5.28497409 -0.44041451 5.28497409 -0.44041451 8 0 C10.5 2.5 10.5 2.5 12 5 C10.92598892 7.91517292 10.22189824 9.77810176 8 12 C7.01 12 6.02 12 5 12 C4.63076923 7.44615385 4.63076923 7.44615385 6.5 5.1875 C6.995 4.795625 7.49 4.40375 8 4 C6.02 4.99 6.02 4.99 4 6 C3.01 5.34 2.02 4.68 1 4 C0.67 4.66 0.34 5.32 0 6 C1.32 6.33 2.64 6.66 4 7 C4 8.65 4 10.3 4 12 C2.68 12 1.36 12 0 12 C-1.875 9.8125 -1.875 9.8125 -3 7 C-2.25 4.3125 -2.25 4.3125 -1 2 C-0.67 1.34 -0.34 0.68 0 0 Z " fill="#21211F" transform="translate(4,1)"/>
<path d="M0 0 C0.33 1.32 0.66 2.64 1 4 C2.32 4.33 3.64 4.66 5 5 C5 6.65 5 8.3 5 10 C3.68 10 2.36 10 1 10 C-0.875 7.8125 -0.875 7.8125 -2 5 C-1.1875 2.1875 -1.1875 2.1875 0 0 Z " fill="#31312F" transform="translate(3,3)"/>
<path d="M0 0 C0.99 0.99 1.98 1.98 3 3 C1.92598892 5.91517292 1.22189824 7.77810176 -1 10 C-1.99 10 -2.98 10 -4 10 C-4.1875 7.625 -4.1875 7.625 -4 5 C-3.01 4.34 -2.02 3.68 -1 3 C-0.67 2.01 -0.34 1.02 0 0 Z " fill="#2C2C2A" transform="translate(13,3)"/>
<path d="M0 0 C3.63 0 7.26 0 11 0 C11 1.98 11 3.96 11 6 C10.484375 5.360625 9.96875 4.72125 9.4375 4.0625 C6.34064377 1.44208319 3.97932377 1.30610183 0 1 C0 0.67 0 0.34 0 0 Z " fill="#E3E3E3" transform="translate(5,0)"/>
</svg>
